<svg xmlns="http://www.w3.org/2000/svg" width="89.956" height="89.956" viewBox="0 0 89.956 89.956"  transform="translate(0 5)">
  <path id="icons8-git" d="M89.6,41.283,52.673,4.358a8.054,8.054,0,0,0-11.389,0l-7.3,7.3L43.024,20.7A7.786,7.786,0,0,1,53.7,31.375l8.884,8.884a7.823,7.823,0,1,1-2.765,2.765L50.93,34.14a7.731,7.731,0,0,1-2,.823V58.987a7.822,7.822,0,1,1-3.911,0V34.965A7.738,7.738,0,0,1,40.261,23.47l-9.044-9.044L4.358,41.283a8.052,8.052,0,0,0,0,11.387L41.283,89.6a8.052,8.052,0,0,0,11.389,0L89.6,52.673A8.054,8.054,0,0,0,89.6,41.283Z" transform="translate(-2 -2)"/>
</svg>
