<svg xmlns="http://www.w3.org/2000/svg" width="79.476" height="89.128" viewBox="0 0 79.476 89.128" transform="translate(0 5)">
  <path id="icons8-html-5" d="M82.847,4.239A3.722,3.722,0,0,0,80.076,3H8.037a3.721,3.721,0,0,0-3.7,4.129L12.53,80.868a3.715,3.715,0,0,0,2.675,3.166L43.03,91.983a3.679,3.679,0,0,0,2.046,0L72.9,84.034a3.72,3.72,0,0,0,2.675-3.166L83.77,7.129A3.706,3.706,0,0,0,82.847,4.239ZM65,30.639H31.777l.789,9.456H64.2L61.822,68.031,44.068,73.678l-.175-.056-17.558-5.6-.96-11.383h8.6l.376,4.423,9.809,2.161L53.8,61.06l1.023-11.952H24.728L22.4,21.6h43.37Z" transform="translate(-4.317 -3)"/>
</svg>
