<svg id="icons8-java" xmlns="http://www.w3.org/2000/svg" width="84.6" height="107.719" viewBox="0 0 84.6 107.719">
  <defs>
    <style>
      .cls-1 {
        fill: #707070;
      }
    </style>
  </defs>
  <path id="Path_142" data-name="Path 142" class="cls-1" d="M33.406,56.276A81.8,81.8,0,0,1,25.762,41.59C21.005,30.159,54.7,19.831,41.03,0c5.924,13.708-21.248,22.171-23.771,33.593C14.941,44.085,33.391,56.276,33.406,56.276Z" transform="translate(8.13 0.002)"/>
  <path id="Path_143" data-name="Path 143" class="cls-1" d="M24.958,25.555c-.541,6.782,6.254,10.4,6.448,15.337.157,4.031-4.061,7.385-4.061,7.385S35,46.84,37.389,40.685c2.652-6.823-5.14-11.485-4.35-16.948C33.8,18.51,49.968,8.811,49.968,8.811S26.171,10.319,24.958,25.555ZM47.973,46.521c4.918-1.06,9.072,1.948,9.072,5.418,0,7.807-11.28,15.186-11.28,15.186s17.468-2,17.468-14.824C63.233,43.828,54.652,41.715,47.973,46.521Z" transform="translate(17.215 10.175)"/>
  <path id="Path_144" data-name="Path 144" class="cls-1" d="M58,33.96s5.448-3.727,6.9-5.119c-13.361,2.723-43.863,3.085-43.863.726,0-2.174,9.83-4.414,9.83-4.414s-21.8-.3-21.8,5.873C9.065,37.47,37.613,37.924,58,33.96Z" transform="translate(-1.098 29.038)"/>
  <path id="Path_145" data-name="Path 145" class="cls-1" d="M50.255,33.389c-12.64,4.046-35.946,2.749-29.047-2.667-3.348,0-8.337,2.59-8.337,5.078,0,5.009,25.191,8.865,43.839,1.549Z" transform="translate(3.296 35.469)"/>
  <path id="Path_146" data-name="Path 146" class="cls-1" d="M22.231,35.922c-4.584,0-7.56,2.833-7.56,4.912,0,6.431,27.378,7.079,38.227.541L46,36.986C37.9,40.414,17.551,40.877,22.231,35.922Z" transform="translate(5.375 41.471)"/>
  <path id="Path_147" data-name="Path 147" class="cls-1" d="M81.9,43.584c0-2.514-2.96-3.708-4.029-4.279,6.25,14.473-62.589,13.348-62.589,4.811,0-1.948,5.056-3.85,9.748-2.941l-3.981-2.26C11.708,37.5,5.366,41.438,5.366,44.62,5.364,59.433,81.9,58.72,81.9,43.584Z" transform="translate(-5.366 44.586)"/>
  <path id="Path_148" data-name="Path 148" class="cls-1" d="M82.559,43.25C70.926,54.278,41.435,58.3,11.782,51.486,41.433,63.617,82.413,56.792,82.559,43.25Z" transform="translate(2.04 49.931)"/>
</svg>
