<svg xmlns="http://www.w3.org/2000/svg" width="79.014" height="88.494" viewBox="0 0 79.014 88.494">
  <defs>
    <style>
      .cls-1 {
        fill: #707070;
      }
    </style>
  </defs>
  <path id="icons8-javascript-logo" class="cls-1" d="M82.974,2.625A1.926,1.926,0,0,0,81.554,2H6.388A1.923,1.923,0,0,0,4.472,4.1l6.772,75.849a1.927,1.927,0,0,0,1.389,1.679l30.8,8.8a1.937,1.937,0,0,0,1.054,0l30.827-8.8A1.927,1.927,0,0,0,76.7,79.944L83.47,4.1A1.928,1.928,0,0,0,82.974,2.625ZM18.962,53.95l13.467,3.736V19.314h7.7V69.333L18.962,63.463ZM69.084,40.476,67.056,64.042l-19.238,5.29V60.481L60.8,56.913l.481-7.214-13.467,2.32v-32.7H70.9l-.664,7.7H55.514V42.4Z" transform="translate(-4.464 -2)"/>
</svg>
