<svg id="icons8-python" xmlns="http://www.w3.org/2000/svg" width="101.985" height="101.985" viewBox="0 0 101.985 101.985" transform="translate(0 7)">
  <path id="Path_152" data-name="Path 152" d="M58.242,3H45.494a17,17,0,0,0-17,17v4.249H49.743a4.249,4.249,0,1,1,0,8.5H20a17,17,0,0,0-17,17v17a17,17,0,0,0,17,17h4.249V62.491A12.764,12.764,0,0,1,37,49.743h34a4.251,4.251,0,0,0,4.249-4.249V20A17,17,0,0,0,58.242,3Zm-17,17a4.249,4.249,0,1,1,4.249-4.249A4.251,4.251,0,0,1,41.244,20Z" transform="translate(-3 -3)"/>
  <path id="Path_153" data-name="Path 153" d="M65.242,8H60.993V29.247A12.764,12.764,0,0,1,48.244,42h-34A4.251,4.251,0,0,0,10,46.244v25.5a17,17,0,0,0,17,17H39.746a17,17,0,0,0,17-17V67.491H35.5a4.249,4.249,0,0,1,0-8.5H65.242a17,17,0,0,0,17-17V25A17,17,0,0,0,65.242,8ZM44,71.741a4.249,4.249,0,1,1-4.249,4.249A4.251,4.251,0,0,1,44,71.741Z" transform="translate(19.746 13.247)"/>
</svg>
