<svg xmlns="http://www.w3.org/2000/svg" width="122.284" height="91.644" viewBox="0 0 122.284 91.644">
  <defs>
    <style>
      .cls-1 {
        fill: #707070;
      }
    </style>
  </defs>
  <path id="icons8-sass" class="cls-1" d="M105.253,55.688a25.124,25.124,0,0,0-11.079,2.58C93.037,56,91.89,54.011,91.7,52.527a15.332,15.332,0,0,1-.214-4.823,41.373,41.373,0,0,1,1.448-5.2c-.015-.219-.265-1.269-2.733-1.285s-4.573.474-4.823,1.127A24.191,24.191,0,0,0,84.355,46c-.433,2.233-4.92,10.207-7.469,14.377a14.929,14.929,0,0,1-1.693-4.2,15.332,15.332,0,0,1-.214-4.823,41.372,41.372,0,0,1,1.448-5.2c-.015-.219-.265-1.269-2.733-1.285s-4.573.474-4.823,1.127-.515,2.172-1.02,3.645-6.475,14.77-8.035,18.216c-.8,1.754-1.489,3.166-1.978,4.13l-.005-.005s-.031.066-.082.173c-.418.821-.668,1.275-.668,1.275a.022.022,0,0,1,.005.015c-.331.6-.688,1.162-.867,1.162a7.683,7.683,0,0,1,.056-3.8c.887-4.614,3.023-11.808,3-12.053-.01-.127.4-1.382-1.392-2.034a2.219,2.219,0,0,0-2.519.428c-.153.005-.27.377-.27.377s1.937-8.091-3.7-8.091c-3.523,0-8.4,3.854-10.809,7.347-1.519.826-4.767,2.6-8.208,4.492-1.326.729-2.672,1.468-3.956,2.177-.087-.1-.173-.194-.265-.291C21.329,55.872,8.7,50.717,9.231,40.918c.194-3.564,1.433-12.945,24.268-24.324,18.706-9.32,33.685-6.755,36.27-1.071,3.7,8.122-8,23.218-27.429,25.395-7.4.831-11.3-2.039-12.267-3.1-1.02-1.127-1.173-1.178-1.555-.964-.622.342-.229,1.336,0,1.927.581,1.509,2.962,4.186,7.02,5.516,3.569,1.173,12.262,1.815,22.769-2.248C70.08,37.492,79.272,24.828,76.57,14.238c-2.748-10.768-20.6-14.306-37.5-8.305C29.028,9.487,18.143,15.095,10.317,22.416,1.012,31.119-.476,38.7.135,41.866c2.172,11.247,17.676,18.573,23.886,24q-.459.252-.857.474c-3.115,1.54-14.933,7.724-17.89,14.26-3.355,7.413.535,12.731,3.1,13.449,7.974,2.218,16.157-1.774,20.551-8.331s3.859-15.1,1.841-18.991c-.025-.046-.051-.1-.076-.143.806-.474,1.621-.958,2.437-1.438,1.586-.928,3.141-1.8,4.487-2.534a30.106,30.106,0,0,0-1.6,8.132c-.331,4.2,1.4,9.641,3.65,11.782a3.989,3.989,0,0,0,2.947.964c2.626,0,3.824-2.182,5.144-4.767,1.616-3.171,3.054-6.857,3.054-6.857s-1.8,9.967,3.11,9.967c1.79,0,3.589-2.32,4.39-3.5a.03.03,0,0,0,.005.02l.138-.229c.184-.286.291-.464.291-.464s.005-.02.01-.051c.719-1.249,2.315-4.094,4.706-8.79,3.09-6.067,6.052-13.664,6.052-13.664a40.711,40.711,0,0,0,1.178,4.93,46.65,46.65,0,0,0,2.549,5.72c-.719.994-1.157,1.565-1.157,1.565a.164.164,0,0,1,.01.031c-.571.76-1.213,1.58-1.886,2.381-2.437,2.906-5.343,6.22-5.731,7.178a1.958,1.958,0,0,0,.535,2.626,4.829,4.829,0,0,0,3,.484,13.871,13.871,0,0,0,4.5-1.02,15.028,15.028,0,0,0,3.865-2.034,8.6,8.6,0,0,0,3.7-7.607,15.448,15.448,0,0,0-1.4-5.374c.219-.311.433-.627.653-.948a101.861,101.861,0,0,0,6.7-11.573,40.71,40.71,0,0,0,1.178,4.93,34,34,0,0,0,2.172,4.915,21,21,0,0,0-6.511,8.428c-1.412,4.063-.306,5.9,1.769,6.322a6.381,6.381,0,0,0,3.263-.663,15.167,15.167,0,0,0,4.13-2.121c2.391-1.759,4.69-4.221,4.553-7.556A14.056,14.056,0,0,0,95.546,61.3,23.362,23.362,0,0,1,107.4,59.93c10.635,1.244,12.72,7.882,12.323,10.661a7.007,7.007,0,0,1-3.375,4.767c-.744.459-.974.622-.913.964.092.5.433.479,1.071.372a8.292,8.292,0,0,0,5.787-7.393C122.547,62.78,116.306,55.627,105.253,55.688ZM23.277,83.321c-3.523,3.844-8.443,5.3-10.554,4.074-2.279-1.32-1.377-6.98,2.947-11.058a56.242,56.242,0,0,1,8.3-6.184c.515-.311,1.269-.765,2.187-1.31.153-.087.24-.133.24-.133l-.005-.005.546-.326A15.281,15.281,0,0,1,23.277,83.321ZM48.942,65.875c-1.229,2.993-3.793,10.645-5.358,10.232-1.341-.352-2.157-6.169-.27-11.894a26.486,26.486,0,0,1,4.181-7.663c1.922-2.151,4.038-2.855,4.553-1.983C52.7,55.683,49.712,64,48.942,65.875Zm21.2,10.12c-.52.27-1,.444-1.219.311-.163-.1.214-.454.214-.454s2.651-2.855,3.7-4.15c.607-.755,1.31-1.652,2.08-2.656.005.1.01.2.01.3C74.918,72.757,71.614,75.067,70.141,75.995Zm16.335-3.727c-.387-.275-.321-1.168.953-3.946a14.9,14.9,0,0,1,3.63-4.685,6.74,6.74,0,0,1,.367,2.06C91.4,70,88.332,71.605,86.476,72.268Z" transform="translate(-0.016 -3.026)"/>
</svg>
