<svg xmlns="http://www.w3.org/2000/svg" width="89.952" height="89.952" viewBox="0 0 89.952 89.952">
  <defs>
    <style>
      .cls-1 {
        fill: #707070;
      }
    </style>
  </defs>
  <path id="icons8-typescript" class="cls-1" d="M3,12.995V82.957a9.992,9.992,0,0,0,9.995,9.995H82.957a9.992,9.992,0,0,0,9.995-9.995V12.995A9.992,9.992,0,0,0,82.957,3H12.995A9.992,9.992,0,0,0,3,12.995ZM56.3,50.23H45.717V82.957h-8.53V50.23H26.822V42.979H56.3Zm1.659,30.859v-8.75a19.627,19.627,0,0,0,10.514,3.6c5.737,0,5.512-3.748,5.512-4.263,0-5.442-16.246-5.442-16.246-17.5,0-16.4,23.672-9.925,23.672-9.925l-.295,7.791A17.272,17.272,0,0,0,72.663,49.4c-4.483,0-6.1,2.134-6.1,4.413,0,5.882,16.4,5.292,16.4,17.131C82.957,89.174,57.961,81.088,57.961,81.088Z" transform="translate(-3 -3)"/>
</svg>
