<svg xmlns="http://www.w3.org/2000/svg" xmlns:xlink="http://www.w3.org/1999/xlink" width="173" height="519" viewBox="0 0 173 519">
  <g id="Mask_Group_6" data-name="Mask Group 6" transform="translate(-74 -158.452)" clip-path="url(#clip-path)">
    <g id="undraw_Pitching_re_fpgk" transform="translate(79.89 163.582)">
      <path id="Path_223" data-name="Path 223" d="M139.254,1068.312h13.211l6.284-50.957h-19.5Z" transform="translate(-106.385 -567.005)" fill="#ac7057"/>
      <path id="Path_224" data-name="Path 224" d="M413.6,1438.17h26.018a16.581,16.581,0,0,1,16.581,16.579v.539l-42.6,0Z" transform="translate(-384.104 -941.175)" fill="#d6d6d6"/>
      <path id="Path_225" data-name="Path 225" d="M223.531,1068.312h13.211l6.284-50.957h-19.5Z" transform="translate(-145.403 -567.005)" fill="#ac7057"/>
      <path id="Path_226" data-name="Path 226" d="M497.879,1438.17H523.9a16.581,16.581,0,0,1,16.581,16.579v.539l-42.6,0Z" transform="translate(-423.122 -941.175)" fill="#d6d6d6"/>
      <path id="Path_227" data-name="Path 227" d="M270.61,698.884,238.338,898.22l-21.552-1.078.534-183.032Z" transform="translate(-142.281 -419.56)" fill="#d6d6d6"/>
      <path id="Path_228" data-name="Path 228" d="M420.624,919.437l78.3,1.087,8.7,59.815-53.289,25.013-23.163,168.934-20.474-1.078-7.477-209.184Z" transform="translate(-379.299 -701.014)" fill="#d6d6d6"/>
      <circle id="Ellipse_23" data-name="Ellipse 23" cx="23.926" cy="23.926" r="23.926" transform="translate(64.164 16.139)" fill="#ac7057"/>
      <path id="Path_229" data-name="Path 229" d="M217.655,320.837l13.815,17.729-6.526,135.942-51.114-1.087-8.7-118.541L176,324.429l3.935-6.824Z" transform="translate(-118.365 -243.037)" fill="#6a818a"/>
      <path id="Path_230" data-name="Path 230" d="M587.509,743.585l11.963,45.677-11.963,45.677,19.576,26.1,17.4-82.653s-13.05-67.427-14.138-75.04-3.263-8.7-3.263-8.7l-8.7,1.087Z" transform="translate(-464.618 -596.941)" fill="#d6d6d6"/>
      <path id="Path_231" data-name="Path 231" d="M113.938,427.028l-7.613,14.139-2.176,23.925,4.35,27.188L93.275,517.294,78.05,448.779l16.312-88.091h6.526Z" transform="translate(-78.05 -262.983)" fill="#d6d6d6"/>
      <path id="Path_232" data-name="Path 232" d="M494.737,738.654l-4.35,41.327,8.7,25.013,5.438,23.926s0,22.838-21.751,23.926-84.828-1.088-84.828-1.088-8.7-1.088-16.313-18.488,15.226-33.714,15.226-33.714l6.525-22.838-2.175-28.276-15.226-73.953,45.133-23.382L442.535,762.58,467,654.369l8.157,5.982,34.8,14.138Z" transform="translate(-368.583 -576.784)" fill="#d6d6d6"/>
      <path id="Path_233" data-name="Path 233" d="M10.525,24.246c2.466,3.165,6.638,4.058,10.487,4.424,7.817.744,19.184-.463,26.823-2.375.545,5.732-.941,11.912,2.171,16.626a83.207,83.207,0,0,0,2.529-17.5,18.061,18.061,0,0,0-.894-7.494c-.951-2.33-3.025-4.308-5.413-4.329a13.046,13.046,0,0,1,6.052-2.806L44.718,6.672,46.66,4.509,32.968,3.6,36.934.868A79.347,79.347,0,0,0,18.918.251c-2.79.223-5.707.649-7.968,2.4S7.383,7.892,8.787,10.466A10.662,10.662,0,0,0,.817,17.325a19.79,19.79,0,0,0-.605,8.8,66.839,66.839,0,0,0,3.016,13.84" transform="matrix(0.985, -0.174, 0.174, 0.985, 55.238, 9.129)" fill="#2f2e41"/>
    </g>
  </g>
</svg>
