<svg xmlns="http://www.w3.org/2000/svg" width="241.588" height="428.721" viewBox="0 0 241.588 428.721">
  <defs>
    <style>
      .cls-1 {
        fill: #ccc;
      }

      .cls-2 {
        fill: #ac7057;
      }

      .cls-3 {
        fill: #2f2e41;
      }

      .cls-4 {
        fill: #6a818a;
      }

      .cls-5 {
        fill: #d6d6d6;
      }

      .cls-6 {
        fill: #bebebe;
      }

      .cls-7 {
        fill: #a0616a;
      }

      .cls-8 {
        fill: #0092ff;
      }
    </style>
  </defs>
  <g id="Group_8" data-name="Group 8" transform="translate(-56.713 -651.04)">
    <g id="Group_7" data-name="Group 7" transform="translate(4 559)">
      <g id="undraw_Sorting_thoughts_re_fgli" transform="translate(-9 6.437)">
        <path id="Path_113" data-name="Path 113" class="cls-1" d="M410.217,1131.652v2.866a17.93,17.93,0,0,0,17.915,17.915H580.047a17.921,17.921,0,0,0,17.915-17.915v-2.866a17.786,17.786,0,0,0-4.157-11.465,18.429,18.429,0,0,0-3.024-2.866h-78.8a3.584,3.584,0,0,1-3.583-3.583H428.131a17.939,17.939,0,0,0-17.914,17.915Z" transform="translate(-348.504 -769.748)"/>
        <rect id="Rectangle_15" data-name="Rectangle 15" class="cls-1" width="18.631" height="131.852" transform="translate(164.191 513.825) rotate(180)"/>
        <path id="Path_114" data-name="Path 114" class="cls-1" d="M471.824,1433.968c0,2.013,28.233.779,63.06.779s63.06,1.234,63.06-.779-28.233-17.977-63.06-17.977S471.824,1431.954,471.824,1433.968Z" transform="translate(-379.292 -920.797)"/>
        <path id="Path_115" data-name="Path 115" class="cls-2" d="M500.64,924.987h17.8l8.467-68.65H500.637Z" transform="translate(-250.189 -427.947)"/>
        <path id="Path_116" data-name="Path 116" class="cls-3" d="M778.423,1408.063h35.052a22.338,22.338,0,0,1,22.337,22.336v.727l-57.388,0Z" transform="translate(-532.512 -916.835)"/>
        <path id="Path_117" data-name="Path 117" class="cls-2" d="M301.463,865.123l-14.42,10.433-47.1-50.653,21.282-15.4Z" transform="translate(-119.907 -404.544)"/>
        <path id="Path_118" data-name="Path 118" class="cls-3" d="M626.238,1350.753l-46.494,33.641-.425-.588a22.339,22.339,0,0,1,5-31.191h0l28.4-20.547Z" transform="translate(-430.892 -878.857)"/>
        <path id="Path_119" data-name="Path 119" class="cls-4" d="M635.934,807.15s-18.674-13.987-38.864,0L583.1,923.707h41.96l6.216-37.3,13.986-55.947Z" transform="translate(-434.899 -613.427)"/>
        <path id="Path_120" data-name="Path 120" class="cls-5" d="M618.877,1100.55l-75.308-24.59-35.9,28.489,38.139,58.306-19.948,26.161-.571-.65c-2.475-2.819-60.609-69.254-60.441-88.1.167-18.685,6.358-37.468,6.42-37.656l18.885-26.8,26.8-7.882,88.734,12.454.145.021,35.851,21.822a28.165,28.165,0,0,1,12.785,20.739c1.54,13.857,4.635,124.822,4.666,125.941l.02.727H620.434Z" transform="translate(-375.805 -726.814)"/>
        <path id="Path_121" data-name="Path 121" class="cls-6" d="M571.168,961.176c-13.089-5.817-29.8-28.53-32.559-32.361-5.386,2.932-44.661,23.923-55.734,18.526-1.608.888-8.878,5.225-10.187,11.771l-.328,1.642-.949-1.38c-.175-.254-17.233-25.619,4.834-41.383,20.121-14.372,25.535-28.891,26.1-30.553l-10.918-57.706.286-.266c.9-.832,22.149-20.387,41.542-22.713l11.963-2.109.523,45.543v58.3C555.41,907.278,570.7,805.4,570.7,805.4l7.991,2.928c2.065.4,25.269,5.031,31.427,14.268l.2.3-21.105,57.062-6.172,9.293v11.9l36.06,31.357-.512.536c-1.229,1.287-27.819,28.943-43.309,28.939a10.043,10.043,0,0,1-4.113-.807Z" transform="translate(-375.86 -615.282)"/>
        <circle id="Ellipse_17" data-name="Ellipse 17" class="cls-2" cx="34.766" cy="34.766" r="34.766" transform="matrix(0.48, -0.877, 0.877, 0.48, 134.379, 156.79)"/>
        <path id="Path_122" data-name="Path 122" class="cls-7" d="M632.174,1103.1a13.613,13.613,0,0,1,17.555-11.294l19.927-23.887,17.47,8.569-28.615,33.339a13.687,13.687,0,0,1-26.337-6.727Z" transform="translate(-459.366 -746.849)"/>
        <path id="Path_123" data-name="Path 123" class="cls-6" d="M660.449,965.176l31.262-42.2-7.744-41.814,12.563-47.11.316-.135c.253-.109,6.266-2.642,10.843-.744a7.329,7.329,0,0,1,4.08,4.24c3.11,7.776,10.608,86.965,10.926,90.469-.064.64-1.6,15.744-4.734,22-3.116,6.232-31.536,37.674-32.744,39.011l-.5.552Z" transform="translate(-473.556 -629.185)"/>
        <path id="Path_126" data-name="Path 126" class="cls-8" d="M651.362,1128.948H611.669c1.488-18.315,6.287-35.417,0-47.632h39.694Q662.573,1105.132,651.362,1128.948Z" transform="translate(-449.178 -753.546)"/>
        <path id="Path_127" data-name="Path 127" class="cls-2" d="M601.452,1123.412a13.613,13.613,0,0,0-17.555-11.293L563.97,1088.23,546.5,1096.8l28.615,33.339a13.687,13.687,0,0,0,26.337-6.727Z" transform="translate(-416.611 -757.001)"/>
        <path id="Path_128" data-name="Path 128" class="cls-6" d="M527.171,999.274c-1.782-1.337-43.7-32.844-48.385-42.21-4.69-9.382-3.528-37.162-3.467-38.426.073-.437,7.371-43.851,13.544-59.284,6.405-16.012,22.516-9.784,22.678-9.719l.487.195-7.015,81.842,38.264,50.759-15.589,17.229Z" transform="translate(-380.953 -637.143)"/>
      </g>
    </g>
    <path id="Path_106" data-name="Path 106" class="cls-3" d="M819.943,354.159c3.532,4.533,9.509,5.812,15.022,6.337,11.2,1.065,27.479-.663,38.422-3.4.781,8.21-1.348,17.062,3.11,23.816a119.184,119.184,0,0,0,3.622-25.064c.135-3.636.082-7.4-1.28-10.735s-4.333-6.171-7.754-6.2a18.688,18.688,0,0,1,8.669-4.02l-10.833-5.9,2.782-3.1-19.612-1.3,5.68-3.914a113.658,113.658,0,0,0-25.805-.883c-4,.319-8.175.929-11.413,3.441s-5.109,7.5-3.1,11.191a15.272,15.272,0,0,0-11.417,9.825c-1.444,3.97-1.311,8.379-.867,12.608a95.74,95.74,0,0,0,4.321,19.824" transform="matrix(0.985, -0.174, 0.174, 0.985, -718.358, 489.304)"/>
  </g>
</svg>
