<svg id="icons8-firebase" xmlns="http://www.w3.org/2000/svg" width="72.58" height="99.795" viewBox="0 0 72.58 99.795">
  <path id="Path_159" data-name="Path 159" d="M8,73.787,42.553,9a1.907,1.907,0,0,1,3.389.045L57.9,32.961Z" transform="translate(-8 5.596)"/>
  <path id="Path_160" data-name="Path 160" d="M8,81.366,20.579,3.8a2.139,2.139,0,0,1,4.008-.646l24.24,46.46Z" transform="translate(-8 -2.001)"/>
  <path id="Path_161" data-name="Path 161" d="M8.008,67.388l.454-.356L48.22,34.5,37.006,13.012Z" transform="translate(-7.99 11.963)"/>
  <path id="Path_162" data-name="Path 162" d="M8,69.948,68.482,11.628a2.163,2.163,0,0,1,3.643,1.241l8.456,57.08L46.558,89.778a4.542,4.542,0,0,1-4.448,0Z" transform="translate(-8 9.435)"/>
</svg>
