<svg xmlns="http://www.w3.org/2000/svg" width="172.332" height="542.551" viewBox="0 0 172.332 542.551">
  <g id="undraw_Duplicate_re_d39g" transform="translate(-144.186 -56.86)">
    <path id="Path_234" data-name="Path 234" d="M187.512,586.351h13.473l6.41-51.967H187.51Z" fill="#ac7057"/>
    <path id="Path_235" data-name="Path 235" d="M351.385,731.207h26.534a16.91,16.91,0,0,1,16.909,16.908v.55l-43.442,0Z" transform="translate(-167.31 -149.254)" fill="#2f2e41"/>
    <path id="Path_236" data-name="Path 236" d="M276.512,586.351h13.473l6.41-51.967H276.51Z" fill="#ac7057"/>
    <path id="Path_237" data-name="Path 237" d="M440.385,731.207h26.534a16.91,16.91,0,0,1,16.909,16.908v.55l-43.442,0Z" transform="translate(-167.31 -149.254)" fill="#2f2e41"/>
    <path id="Path_238" data-name="Path 238" d="M176.231,575.082h34.9l22.307-195.323,41.014,195.323H298V342.166L186.038,308.658Z" fill="#2f2e41"/>
    <circle id="Ellipse_24" data-name="Ellipse 24" cx="30.436" cy="30.436" r="30.436" transform="translate(205.304 75.929)" fill="#ac7057"/>
    <path id="Path_239" data-name="Path 239" d="M355.8,462.816c32.658,25.54,68.706,38.414,109.512,33.507-17.234-60.511-22.346-120.564-5.721-179.8L425.267,301l-38.584-2.452L358.641,306.8a18.751,18.751,0,0,0-13.451,18.357C346.18,375.667,342.821,422.94,355.8,462.816Z" transform="translate(-167.31 -149.254)" fill="#6a818a"/>
    <path id="Path_248" data-name="Path 248" d="M374.943,482.768a10.433,10.433,0,0,0-12.312-10.213l-18.266-32.262-7.536,15.447,17.455,29.713a10.489,10.489,0,0,0,20.658-2.685Z" transform="translate(-167.31 -149.254)" fill="#ac7057"/>
    <path id="Path_249" data-name="Path 249" d="M456.614,518.633a10.433,10.433,0,0,1,5.954-14.848l.675-37.067,15.887,10.9-3.077,33.529a10.489,10.489,0,0,1-19.439,7.489Z" transform="translate(-167.31 -149.254)" fill="#ac7057"/>
    <path id="Path_250" data-name="Path 250" d="M345.993,478.344l13.076-12.259-6.711-66.2,7.764-93.575h0c-16.865,5.3-34.974,19.539-37.957,36.965L311.5,405.609Z" transform="translate(-167.31 -149.254)" fill="#6a818a"/>
    <path id="Path_251" data-name="Path 251" d="M186.275,215.083l-10.625,42.5,16.109,60.3-10.388-57.035Z" opacity="0.2"/>
    <path id="Path_252" data-name="Path 252" d="M458.774,501.227l21.249,2.452-4.976-157.785a36.727,36.727,0,0,0-22.583-32.744l-7.584-3.16,2.043,73.961Z" transform="translate(-167.31 -149.254)" fill="#6a818a"/>
    <path id="Path_253" data-name="Path 253" d="M283.509,237.114l8.2,91.062-13.887-90.427Z" opacity="0.2"/>
    <path id="Path_67" data-name="Path 67" d="M856.869,353.807c-3.05,4.487-8.21,5.753-12.971,6.272-9.668,1.054-23.727-.656-33.175-3.368-.674,8.127,1.164,16.889-2.685,23.574a134.175,134.175,0,0,1-3.127-24.809c-.117-3.6-.071-7.322,1.105-10.626s3.741-6.108,6.7-6.138a15.305,15.305,0,0,0-7.485-3.979l9.354-5.844-2.4-3.066,16.934-1.288-4.9-3.874a85.737,85.737,0,0,1,22.282-.874c3.451.316,7.059.92,9.855,3.406s4.411,7.427,2.676,11.077c4.418.9,8.147,4.581,9.858,9.726,1.247,3.929,1.132,8.293.749,12.48a106.818,106.818,0,0,1-3.731,19.623" transform="translate(-600.711 -262.568)" fill="#2f2e41"/>
  </g>
</svg>
