<svg xmlns="http://www.w3.org/2000/svg" width="177.686" height="458.152" viewBox="0 0 177.686 458.152">
  <path id="Path_178" data-name="Path 178" d="M1190.743,325.219a9.124,9.124,0,0,0,2.75,13.718l-5.335,31.982,15.4-6.835,2.706-29.323a9.174,9.174,0,0,0-15.521-9.542Z" transform="translate(-1175.578 -321.737)" fill="#ac7057"/>
  <path id="Path_179" data-name="Path 179" d="M1113.794,1033.933H1101.2l-5.991-48.572H1113.8Z" transform="translate(-960.078 -587.987)" fill="#ac7057"/>
  <path id="Path_180" data-name="Path 180" d="M1472.365,1375.539l-40.6,0v-.513a15.805,15.805,0,0,1,15.8-15.8h24.8Z" transform="translate(-1315.437 -917.386)" fill="#2f2e41"/>
  <path id="Path_181" data-name="Path 181" d="M915.378,1033.933H902.785l-5.991-48.572H915.38Z" transform="translate(-846.162 -587.987)" fill="#ac7057"/>
  <path id="Path_182" data-name="Path 182" d="M1273.948,1375.539l-40.6,0v-.513a15.805,15.805,0,0,1,15.8-15.8h24.8Z" transform="translate(-1201.52 -917.386)" fill="#2f2e41"/>
  <path id="Path_183" data-name="Path 183" d="M1287,836.663l-4.707,6.191s-.426,2.891-7.566,26.444l-3.916,177.035H1294.5l31.668-141.648,32.867,144.49,20.537,1.212-.966-164.229s2.594-33.786-6.6-40.061S1287,836.663,1287,836.663Z" transform="translate(-1223.029 -617.371)" fill="#2f2e41"/>
  <circle id="Ellipse_18" data-name="Ellipse 18" cx="24.861" cy="24.861" r="24.861" transform="translate(70.878 20.802)" fill="#ac7057"/>
  <path id="Path_185" data-name="Path 185" d="M1353.19,498.319l13.757,7.6,27.022,7.566L1385.9,584.2l1.468,69.657s-45.741,31.334-89.6-5.26V560.923l2.595-47.435s10.5-2.982,15.781,2.162l10.023-13.02Z" transform="translate(-1238.509 -423.118)" fill="#6a818a"/>
  <path id="Path_186" data-name="Path 186" d="M845.818,179.223l-6.061-6.515-33.4-3.784,3.134-51.3-18.21-12.991L777.9,176.853l61.8,43.288Z" transform="translate(-777.902 -82.337)" fill="#6a818a"/>
  <path id="Path_187" data-name="Path 187" d="M1476.856,861.55a9.124,9.124,0,0,1,8.861-10.827L1496,819.973l10.4,13.258L1495.039,860.4a9.174,9.174,0,0,1-18.183,1.151Z" transform="translate(-1341.236 -607.789)" fill="#ac7057"/>
  <path id="Path_188" data-name="Path 188" d="M1492.367,542.034l10.152-8.095s10.381,5.726,13.54,15.992,8.687,68.705,8.687,68.705l-15,75.023-16.78-11.637,8.093-59.437-14.215-43.434Z" transform="translate(-1347.06 -443.568)" fill="#6a818a"/>
  <path id="Path_67" data-name="Path 67" d="M847.218,348c-2.484,3.729-6.687,4.781-10.564,5.212-7.874.876-19.324-.545-27.019-2.8-.549,6.753.948,14.035-2.187,19.59a113.646,113.646,0,0,1-2.547-20.616,24.676,24.676,0,0,1,.9-8.83c.958-2.745,3.047-5.076,5.453-5.1a12.387,12.387,0,0,0-6.1-3.307l7.618-4.857-1.956-2.548,13.792-1.071-3.995-3.219a68.455,68.455,0,0,1,18.147-.727c2.81.263,5.749.764,8.026,2.83s3.593,6.172,2.179,9.2c3.6.75,6.635,3.807,8.029,8.082a27.132,27.132,0,0,1,.61,10.371,90.381,90.381,0,0,1-3.038,16.307" transform="translate(-734.867 -316.429)" fill="#2f2e41"/>
</svg>
