<svg xmlns="http://www.w3.org/2000/svg" width="406.486" height="534.094" viewBox="0 0 406.486 534.094">
  <defs>
    <style>
      .cls-1 {
        fill: #ac7057;
      }

      .cls-2 {
        fill: #6a818a;
      }

      .cls-3 {
        fill: #a0616a;
      }

      .cls-4 {
        fill: #2f2e41;
      }
    </style>
  </defs>
  <g id="Group_4" data-name="Group 4" transform="translate(-1204.021 -472.687)">
    <g id="Group_5" data-name="Group 5">
      <g id="Group_2" data-name="Group 2" transform="translate(925 492)">
        <g id="undraw_dev_productivity_umsq" transform="translate(135.71 -25)">
          <circle id="Ellipse_16" data-name="Ellipse 16" class="cls-1" cx="58.382" cy="58.382" r="58.382" transform="translate(287.709 35.623)"/>
          <path id="Path_96" data-name="Path 96" class="cls-1" d="M945.667,427.2s11,82.92-5.923,92.228,100.689,10.154,100.689,10.154-26.23-71.921-14.384-93.92Z" transform="translate(-643.152 -304.002)"/>
          <path id="Path_97" data-name="Path 97" class="cls-2" d="M1042.924,592.982l-9.781,44.539-20.682,94.232-.619,5.161-7.137,59.743-4.748,39.689-3.184,26.66c-19.356,9.948-33.385,16.815-33.385,16.815s-1.207-6.05-3.152-13.791c-13.584,4.073-38.72,10.829-60.021,12.179,7.757,8.646,11.321,16.768,6.486,22.762-14.592,18.07-74.836-19.785-95.907-33.9a57.032,57.032,0,0,0-.556,10.21l-16.125-12.4,1.6-28.534,2.691-48.279,3.382-60.545a63.579,63.579,0,0,1-2.676-7.963c-4.938-17.562-10.932-52.63-15.529-82.037-3.7-23.667-6.478-43.666-7.066-47.922-.079-.556-.119-.842-.119-.842l89.262-39.442c6.343,14.711,35.965,19.134,35.965,19.134,24.54-1.691,43.777-14.632,43.777-14.632Z" transform="translate(-559.761 -366.985)"/>
          <path id="Path_98" data-name="Path 98" class="cls-3" d="M1062.571,1167.946s-3.779,1.294-9.924,3.128c-13.584,4.073-38.72,10.829-60.021,12.179-18.34,1.175-33.837-1.651-36.672-13.616-1.215-5.145.508-9.376,4.263-12.854,11.21-10.392,40.49-14.116,63.713-15.394,6.558-.357,12.624-.524,17.673-.588,8.574-.111,14.2.064,14.2.064l.135.524Z" transform="translate(-652.172 -672.028)"/>
          <path id="Path_100" data-name="Path 100" class="cls-2" d="M1286.622,844.252c-5.947,6.447-20.682,16.156-38.545,26.668-6.645,3.906-13.719,7.931-20.936,11.933-17.22,9.551-35.25,19.015-50.129,26.66-19.356,9.948-33.385,16.815-33.385,16.815s-1.207-6.05-3.152-13.791c-2.6-10.361-6.526-23.754-10.615-29.685-.143-.206-.286-.4-.429-.587-1.191-1.564-2.39-2.477-3.573-2.477l59.084-36.624,25.533-15.831-18.4-43.912-23.072-55.083,13.926-44.309,14-44.539h26.231s8.686,18.959,19.793,45.4c1.659,3.954,3.374,8.074,5.121,12.33C1270.926,752.791,1299.412,830.4,1286.622,844.252Z" transform="translate(-740 -413.493)"/>
          <path id="Path_101" data-name="Path 101" class="cls-3" d="M935.544,1198.012c-14.592,18.07-74.836-19.785-95.907-33.9-4.589-3.073-7.32-5.018-7.32-5.018l19.277-25.707,6.105-8.138s5.462,2.9,13.536,7.614c.294.175.588.349.889.524,6.963,4.089,15.7,9.432,24.524,15.394,12.171,8.233,24.477,17.625,32.408,26.47C936.815,1183.9,940.379,1192.018,935.544,1198.012Z" transform="translate(-588.605 -664.026)"/>
          <path id="Path_102" data-name="Path 102" class="cls-2" d="M764.3,878.727a37.949,37.949,0,0,0-6.431.524c-18.252,3.136-23.635,19.658-25.168,30.725a57.032,57.032,0,0,0-.556,10.21l-16.125-12.4-5.875-4.517c-14.14-4.93-26.74-13.687-37.664-24.016a189.337,189.337,0,0,1-25.366-30.082,265.288,265.288,0,0,1-19.626-33.663,24.758,24.758,0,0,1-.341-21l19.967-44.5L676.3,684.968q.321-2.322.707-4.541c5.788-33.186,21.293-47.922,21.293-47.922h11.845l7.923,47.922,9.845,59.537-6.9,22.5-15.942,51.963,15.235,16.545Z" transform="translate(-481.668 -409.89)"/>
          <path id="Path_104" data-name="Path 104" class="cls-4" d="M1016.79,1241.286v4.819a10.59,10.59,0,0,1-.723,3.866,10.85,10.85,0,0,1-.77,1.588,10.668,10.668,0,0,1-9.17,5.208H651.6a10.668,10.668,0,0,1-9.17-5.208,10.856,10.856,0,0,1-.77-1.588,10.592,10.592,0,0,1-.722-3.866v-4.819a10.66,10.66,0,0,1,10.662-10.662h20.436v-2.247a.444.444,0,0,1,.445-.445h10.663a.444.444,0,0,1,.445.445v2.247h6.661v-2.247a.444.444,0,0,1,.445-.445h10.662a.444.444,0,0,1,.445.445v2.247h6.669v-2.247a.444.444,0,0,1,.445-.445h10.662a.444.444,0,0,1,.445.445v2.247h6.661v-2.247a.444.444,0,0,1,.445-.445h10.662a.444.444,0,0,1,.445.445v2.247h6.661v-2.247a.444.444,0,0,1,.445-.445H756a.444.444,0,0,1,.445.445v2.247h6.669v-2.247a.444.444,0,0,1,.445-.445h10.662a.444.444,0,0,1,.445.445v2.247h6.661v-2.247a.444.444,0,0,1,.445-.445h83.521a.444.444,0,0,1,.445.445v2.247h6.669v-2.247a.444.444,0,0,1,.445-.445h10.662a.449.449,0,0,1,.445.445v2.247h6.661v-2.247a.444.444,0,0,1,.445-.445h10.662a.444.444,0,0,1,.445.445v2.247h6.661v-2.247a.444.444,0,0,1,.445-.445h10.662a.444.444,0,0,1,.445.445v2.247h6.669v-2.247a.444.444,0,0,1,.445-.445h10.662a.442.442,0,0,1,.437.445v2.247h6.669v-2.247a.444.444,0,0,1,.445-.445h10.662a.444.444,0,0,1,.445.445v2.247h6.661v-2.247a.444.444,0,0,1,.445-.445h10.662a.444.444,0,0,1,.445.445v2.247h31.1a10.66,10.66,0,0,1,10.662,10.663Z" transform="translate(-489.898 -716.986)"/>
          <path id="Path_105" data-name="Path 105" class="cls-4" d="M1002.747,833.5H870.6v-2.724H810.683V833.5H677.994a8.938,8.938,0,0,0-8.939,8.939V1023.38a8.938,8.938,0,0,0,8.938,8.939h324.752a8.938,8.938,0,0,0,8.938-8.939V842.435a8.939,8.939,0,0,0-8.939-8.939Z" transform="translate(-504.401 -512.148)"/>
        </g>
      </g>
      <path id="Path_106" data-name="Path 106" class="cls-4" d="M830.339,379.707c5.967,7.868,16.065,10.088,25.38,11,18.918,1.848,46.427-1.15,64.915-5.906,1.32,14.249-2.278,29.613,5.254,41.335a212.13,212.13,0,0,0,6.119-43.5c.228-6.31.139-12.838-2.163-18.631s-7.32-10.71-13.1-10.762a31.2,31.2,0,0,1,14.647-6.977l-18.3-10.248,4.7-5.376-33.136-2.259,9.6-6.793a186.98,186.98,0,0,0-43.6-1.533c-6.752.554-13.812,1.613-19.283,5.972s-8.632,13.023-5.236,19.423c-8.646,1.582-15.942,8.032-19.289,17.053-2.439,6.89-2.216,14.542-1.464,21.883a170.075,170.075,0,0,0,7.3,34.408" transform="translate(538.292 153.259)"/>
    </g>
  </g>
</svg>
