<svg id="icons8-mysql-logo" xmlns="http://www.w3.org/2000/svg" width="106.347" height="104.337" viewBox="0 0 106.347 104.337">
  <path id="Path_136" data-name="Path 136" d="M-113.654,93.4c-5.8-.157-10.232.384-14.019,1.977-1.075.454-2.793.465-2.971,1.815.589.621.681,1.545,1.156,2.307a18.115,18.115,0,0,0,3.792,4.452c1.491,1.124,3.025,2.328,4.619,3.3,2.836,1.729,6.007,2.717,8.741,4.452,1.61,1.021,3.209,2.312,4.781,3.463.778.573,1.3,1.459,2.307,1.815v-.162c-.529-.675-.67-1.6-1.156-2.312l-2.145-2.145a35.148,35.148,0,0,0-7.585-7.255c-2.258-1.621-7.3-3.809-8.249-6.434l-.167-.167a36.1,36.1,0,0,0,4.949-1.156c2.48-.664,4.695-.492,7.255-1.156l3.463-.989v-.659c-1.3-1.329-2.22-3.085-3.63-4.29a106.353,106.353,0,0,0-11.874-8.909c-2.3-1.453-5.149-2.4-7.585-3.63-.821-.416-2.264-.632-2.8-1.318-1.28-1.632-1.977-3.706-2.966-5.608-2.069-3.987-4.106-8.341-5.937-12.534-1.253-2.858-2.069-5.683-3.63-8.249-7.488-12.312-15.553-19.746-28.038-27.05-2.658-1.556-5.856-2.166-9.238-2.971-1.815-.108-3.63-.222-5.446-.33-1.107-.465-2.258-1.815-3.3-2.474-4.138-2.615-14.749-8.3-17.812-.827-1.934,4.716,2.89,9.319,4.619,11.712a35.5,35.5,0,0,1,3.63,5.446c.567,1.237.67,2.48,1.156,3.792a94.671,94.671,0,0,0,4.646,9.9,33.893,33.893,0,0,0,2.642,4.452c.605.827,1.648,1.194,1.815,2.474-1.021,1.426-1.075,3.636-1.648,5.446-2.577,8.131-1.6,18.233,2.145,24.246,1.151,1.848,3.863,5.808,7.585,4.289,3.258-1.329,2.534-5.44,3.463-9.071.211-.821.081-1.426.5-1.977v.167q1.483,2.966,2.971,5.937a40.522,40.522,0,0,0,9.4,9.735c1.713,1.3,3.063,3.533,5.278,4.289v-.167h-.167c-.427-.67-1.1-.945-1.648-1.486a37.051,37.051,0,0,1-3.792-4.289,100.354,100.354,0,0,1-8.082-13.2c-1.156-2.22-2.161-4.668-3.133-6.926-.378-.87-.373-2.188-1.156-2.642-1.07,1.653-2.636,2.993-3.463,4.949-1.318,3.123-1.491,6.937-1.977,10.886-.292.1-.162.032-.33.162-2.3-.556-3.106-2.917-3.96-4.949-2.161-5.132-2.561-13.393-.659-19.3.492-1.529,2.712-6.342,1.815-7.752-.427-1.41-1.848-2.226-2.636-3.3a25.954,25.954,0,0,1-2.642-4.619c-1.767-4-3.447-8.655-5.305-12.7a36.55,36.55,0,0,0-3.63-5.608c-1.367-1.9-2.9-3.306-3.96-5.608-.378-.816-.891-2.129-.33-2.971a1.3,1.3,0,0,1,.989-.989c.956-.74,3.62.243,4.619.659a39.959,39.959,0,0,1,7.093,3.63c1.075.713,2.161,2.091,3.463,2.474h1.486c2.323.535,4.922.167,7.093.827a42.8,42.8,0,0,1,10.389,4.949,64.306,64.306,0,0,1,22.6,24.743c.854,1.642,1.226,3.209,1.977,4.949,1.518,3.512,3.436,7.126,4.949,10.556a49.236,49.236,0,0,0,5.116,9.735c1.124,1.5,5.456,2.3,7.423,3.133a43.729,43.729,0,0,1,4.949,1.977c2.5,1.507,4.916,3.3,7.255,4.949C-117.43,90.1-113.832,91.906-113.654,93.4Z" transform="translate(211.595 -12.641)"/>
  <path id="Path_137" data-name="Path 137" d="M-235.607-13.487a11.743,11.743,0,0,0-2.971.33v.167h.167a22.927,22.927,0,0,0,2.307,2.971c.551,1.156,1.1,2.307,1.648,3.463l.162-.162c1.021-.719,1.491-1.869,1.486-3.63-.411-.432-.47-.972-.827-1.486C-234.1-12.526-235.012-12.915-235.607-13.487Z" transform="translate(259.816 31.403)"/>
</svg>
